HIERARCHY
ROOT hip
{
	OFFSET 0.000000 0.000000 0.000000 
	CHANNELS 6 Xposition Yposition Zposition Xrotation Zrotation Yrotation
	JOINT abdomen
	{
		OFFSET 0.000000 3.402643 0.000000 
		CHANNELS 3 Xrotation Zrotation Yrotation
		JOINT chest
		{
			OFFSET 0.000000 8.438565 -0.680529 
			CHANNELS 3 Xrotation Zrotation Yrotation
			JOINT neck
			{
				OFFSET 0.000000 10.207942 -0.272212 
				CHANNELS 3 Xrotation Zrotation Yrotation
				JOINT head
				{
					OFFSET 0.000000 3.130431 0.000000 
					CHANNELS 3 Xrotation Zrotation Yrotation
					End Site
					{
						OFFSET 0.000000 3.130435 0.000000 
					}
				}
			}
			JOINT lCollar
			{
				OFFSET 3.470700 6.669187 -0.816635 
				CHANNELS 3 Yrotation Zrotation Xrotation
				JOINT lShldr
				{
					OFFSET 3.198488 0.000000 0.000000 
					CHANNELS 3 Zrotation Yrotation Xrotation
					JOINT lForeArm
					{
						OFFSET 10.139888 0.000000 0.000000 
						CHANNELS 3 Yrotation Zrotation Xrotation
						JOINT lHand
						{
							OFFSET 8.370511 0.000000 0.000000 
							CHANNELS 3 Zrotation Yrotation Xrotation
							End Site
							{
								OFFSET 4.083176 0.000000 0.000000 
							}
						}
					}
				}
			}
			JOINT rCollar
			{
				OFFSET -3.470700 6.669187 -0.816635 
				CHANNELS 3 Yrotation Zrotation Xrotation
				JOINT rShldr
				{
					OFFSET -3.198488 0.000000 0.000000 
					CHANNELS 3 Zrotation Yrotation Xrotation
					JOINT rForeArm
					{
						OFFSET -10.139888 0.000000 0.000000 
						CHANNELS 3 Yrotation Zrotation Xrotation
						JOINT rHand
						{
							OFFSET -8.370511 0.000000 0.000000 
							CHANNELS 3 Zrotation Yrotation Xrotation
							End Site
							{
								OFFSET -4.083176 0.000000 0.000000 
							}
						}
					}
				}
			}
		}
	}
	JOINT lThigh
	{
		OFFSET 5.308129 -1.633274 1.361059 
		CHANNELS 3 Xrotation Zrotation Yrotation
		JOINT lShin
		{
			OFFSET -2.041588 -20.007561 0.000000 
			CHANNELS 3 Xrotation Zrotation Yrotation
			JOINT lFoot
			{
				OFFSET 0.000000 -19.190928 -1.224953 
				CHANNELS 3 Xrotation Yrotation Zrotation
				End Site
				{
					OFFSET 0.000000 -2.449906 4.627600 
				}
			}
		}
	}
	JOINT rThigh
	{
		OFFSET -5.308129 -1.633274 1.361059 
		CHANNELS 3 Xrotation Zrotation Yrotation
		JOINT rShin
		{
			OFFSET 2.041588 -20.007561 0.000000 
			CHANNELS 3 Xrotation Zrotation Yrotation
			JOINT rFoot
			{
				OFFSET 0.000000 -19.190928 -1.224953 
				CHANNELS 3 Xrotation Yrotation Zrotation
				End Site
				{
					OFFSET 0.000000 -2.449906 4.627600 
				}
			}
		}
	}
}
MOTION
Frames: 6
Frame Time: 0.016667
-2.239642 52.318012 -0.859048 -10.455741 -1.453151 2.950003 29.051336 0.786087 -0.147904 -0.158165 3.230229 -3.284501 1.997657 -1.525526 -0.095297 21.750477 0.146300 -2.871085 -12.728801 -12.493216 -0.662547 -58.546318 8.658159 -13.744614 -25.512983 -5.000000 31.475554 -22.579784 -1.329198 24.408903 13.374534 15.664699 -0.828992 55.870125 -5.578461 -10.030540 30.979261 5.000000 25.473536 28.393986 -17.503061 3.519769 17.437984 20.300362 11.392885 3.284248 -7.393769 -0.759098 -5.536458 7.322129 -6.894323 19.791327 -8.983259 -12.335795 2.568639 2.164996 0.107429 -7.055159 -7.378373 10.675015 
-2.238558 52.316833 -0.861463 -10.454499 -1.443436 2.920717 29.031565 0.777550 -0.151841 -0.178435 3.220429 -3.304001 1.997657 -1.525526 -0.095297 21.778778 0.156028 -3.056630 -12.748100 -12.473708 -0.661540 -58.548237 8.744626 -13.806683 -25.583902 -5.000000 31.405104 -22.595787 -1.347558 24.458714 13.443039 15.674451 -0.829496 55.866226 -5.564709 -9.991944 30.959738 5.000000 25.455017 28.354198 -17.483824 3.541371 17.415270 20.268520 11.333537 3.335334 -7.360050 -0.763675 -5.589861 7.410913 -6.970032 19.792597 -9.003524 -12.360705 2.567662 2.165890 0.116808 -7.023496 -7.292529 10.671311 
-2.238245 52.315647 -0.865268 -10.453516 -1.443486 2.881666 29.011583 0.762410 -0.168774 -0.199065 3.220388 -3.333266 2.007406 -1.515870 -0.096757 21.807650 0.156004 -3.212879 -12.777281 -12.463952 -0.661035 -58.567131 8.867581 -13.916117 -25.687544 -5.000000 31.280954 -22.623676 -1.383386 24.537159 13.531224 15.693954 -0.830506 55.841061 -5.551485 -9.930846 30.939241 5.000000 25.412350 28.300396 -17.485434 3.567174 17.371330 20.253231 11.283136 3.421404 -7.287885 -0.762105 -5.629336 7.466773 -7.103999 19.771742 -9.003105 -12.410368 2.574527 2.143025 0.097682 -7.011991 -7.203764 10.647069 
-2.238442 52.314465 -0.870000 -10.432507 -1.443559 2.823091 28.972191 0.743401 -0.176629 -0.220066 3.230106 -3.372298 2.007406 -1.515870 -0.096757 21.845715 0.165729 -3.369127 -12.806461 -12.454194 -0.660531 -58.580101 9.016441 -14.043725 -25.803072 -5.000000 31.145697 -22.651560 -1.421074 24.667423 13.639087 15.723210 -0.832019 55.794659 -5.538697 -9.845366 30.927988 5.000000 25.366865 28.237425 -17.507050 3.570045 17.329924 20.222200 11.271703 3.511141 -7.223186 -0.760430 -5.679694 7.532588 -7.265391 19.719490 -9.022079 -12.484617 2.614352 2.124731 0.119354 -7.022863 -7.024100 10.652554 
-2.238402 52.313282 -0.874738 -10.421266 -1.443631 2.764516 28.932259 0.723011 -0.206725 -0.249914 3.230085 -3.391814 2.007137 -1.504755 -0.088565 21.875292 0.155962 -3.476550 -12.835643 -12.444436 -0.660026 -58.593536 9.156971 -14.176435 -25.912817 -5.000000 31.005112 -22.688326 -1.458331 24.788908 13.727272 15.742714 -0.833028 55.758926 -5.529603 -9.768878 30.916695 5.000000 25.324415 28.170115 -17.521042 3.602126 17.290815 20.202612 11.242467 3.586596 -7.120213 -0.757279 -5.740343 7.536935 -7.453296 19.692362 -9.012998 -12.561574 2.613814 2.094546 0.109437 -7.031873 -6.866660 10.626565 
-2.237414 52.312099 -0.879518 -10.410732 -1.453445 2.715703 28.902775 0.722336 -0.227698 -0.250286 3.239843 -3.401578 1.997341 -1.485443 -0.091485 21.916370 0.126734 -3.369133 -12.874589 -12.434679 -0.659522 -58.603550 9.273934 -14.291094 -26.001881 -5.000000 30.878685 -22.720552 -1.504106 24.922525 13.795780 15.752465 -0.833532 55.724224 -5.509768 -9.712377 30.914652 5.000000 25.276108 28.129236 -17.518583 3.613885 17.270489 20.192680 11.258070 3.666348 -7.068333 -0.754597 -5.770045 7.572080 -7.596876 19.672836 -9.032006 -12.625901 2.624778 2.096470 0.110019 -7.016809 -6.685683 10.644423 
